<?xml version="1.0" standalone="no"?>
<!DOCTYPE svg PUBLIC "-//W3C//DTD SVG 20010904//EN"
 "http://www.w3.org/TR/2001/REC-SVG-20010904/DTD/svg10.dtd">
<svg version="1.0" xmlns="http://www.w3.org/2000/svg"
 width="350.000000pt" height="350.000000pt" viewBox="0 0 350.000000 350.000000"
 preserveAspectRatio="xMidYMid meet">
<metadata>
Created by potrace 1.11, written by Peter Selinger 2001-2013
</metadata>
<g transform="translate(0.000000,350.000000) scale(0.100000,-0.100000)"
fill="#000000" stroke="none">
<path d="M1358 3094 c-2 -1 -28 -4 -58 -7 -30 -3 -62 -7 -70 -10 -8 -4 -28 -8
-45 -11 -16 -3 -44 -9 -62 -14 -17 -6 -34 -8 -37 -4 -3 3 -6 -1 -6 -8 0 -7 -3
-11 -6 -8 -10 10 -148 -40 -204 -73 -8 -5 -22 -12 -30 -15 -40 -16 -103 -51
-120 -66 -11 -10 -23 -18 -28 -18 -27 0 -255 -205 -315 -283 -12 -16 -26 -34
-32 -40 -32 -38 -93 -135 -88 -141 3 -3 2 -6 -4 -6 -16 0 -118 -227 -139 -309
-2 -9 -10 -43 -19 -76 -18 -72 -26 -123 -30 -190 -2 -27 -5 -52 -5 -55 -4 -13
1 -180 6 -215 4 -22 8 -53 10 -70 7 -59 22 -131 38 -175 9 -25 19 -54 21 -65
8 -32 59 -150 67 -153 5 -2 8 -9 8 -16 0 -6 20 -45 45 -85 25 -40 45 -75 45
-77 0 -2 8 -13 18 -23 9 -11 26 -32 37 -46 11 -15 34 -42 52 -60 17 -18 29
-36 26 -39 -4 -3 -2 -6 4 -6 6 0 28 -17 49 -37 66 -64 106 -97 173 -142 75
-51 245 -141 266 -141 8 0 15 -4 15 -10 0 -5 7 -7 15 -4 8 4 15 1 15 -5 0 -6
3 -10 8 -10 4 1 9 0 12 -1 3 -1 12 -3 20 -5 8 -2 33 -9 55 -15 22 -6 47 -13
55 -15 8 -2 15 -4 15 -5 0 -3 53 -11 155 -24 100 -13 375 -10 375 4 0 1 9 3
20 4 80 12 120 21 209 51 56 18 124 43 151 56 28 12 53 22 57 21 3 -1 12 5 18
13 7 8 16 15 21 15 12 0 140 81 169 107 14 13 28 23 32 23 4 0 28 20 55 45 26
24 51 45 56 45 4 0 7 6 7 14 0 8 9 18 20 21 11 4 18 11 15 16 -4 5 1 9 9 9 9
0 16 4 16 9 0 4 14 22 30 39 17 18 30 36 30 42 0 5 5 10 10 10 6 0 10 7 10 15
0 8 4 15 8 15 9 0 92 126 92 141 0 5 4 9 9 9 5 0 11 8 14 17 3 10 24 60 46
111 23 51 43 102 44 112 2 11 6 23 10 26 4 4 7 12 7 17 0 6 -26 -16 -58 -49
-95 -97 -194 -172 -287 -219 -22 -11 -43 -24 -47 -30 -4 -5 -8 -6 -8 -1 0 5
-6 3 -14 -3 -11 -9 -120 -51 -133 -51 -2 0 -1 5 2 10 3 6 1 10 -5 10 -6 0 -15
10 -21 23 -19 42 -78 73 -141 75 -31 1 -60 -3 -63 -8 -4 -7 -13 -7 -25 0 -15
8 -17 19 -14 61 2 28 7 56 12 63 17 22 35 102 38 166 5 102 22 150 70 200 41
43 48 59 45 108 -1 22 -2 22 -33 6 -22 -11 -47 -15 -87 -12 -48 4 -60 2 -88
-20 -18 -13 -33 -21 -33 -18 0 7 -64 -25 -90 -44 -12 -9 -9 -10 15 -6 29 6 29
6 10 -9 -11 -9 -32 -19 -47 -22 -44 -9 -33 -18 23 -20 52 -2 75 -12 51 -20 -7
-3 -19 -20 -27 -39 -8 -19 -19 -34 -25 -34 -6 0 -14 -10 -19 -22 -5 -13 -25
-46 -44 -75 -19 -29 -45 -83 -57 -120 -12 -37 -25 -77 -30 -88 -5 -11 -11 -36
-13 -55 -2 -19 -8 -44 -12 -54 -5 -12 -5 -17 2 -13 6 4 10 -8 10 -28 0 -32 -2
-34 -26 -28 -14 3 -36 10 -48 14 -13 5 -23 5 -23 2 0 -4 -5 -2 -12 5 -7 7 -20
12 -30 12 -10 0 -18 4 -18 8 0 5 -6 9 -13 9 -13 0 -107 43 -117 53 -3 3 -21
14 -40 24 -57 32 -130 87 -130 99 0 6 -3 8 -6 5 -8 -8 -111 96 -165 167 -69
90 -167 282 -177 345 0 3 -3 12 -6 20 -7 19 -33 159 -35 185 -10 123 2 296 24
365 4 13 8 28 10 34 6 30 18 72 24 81 3 6 6 15 6 20 1 15 52 123 78 164 12 20
22 38 22 41 1 13 78 110 88 110 6 0 8 3 5 6 -11 10 192 204 212 204 5 0 15 6
22 13 13 11 24 18 81 50 12 6 24 14 27 18 3 3 43 20 90 38 47 19 88 36 92 40
4 3 -53 6 -127 7 -74 0 -136 0 -137 -2z m720 -2144 c36 0 -10 -24 -51 -27
l-42 -2 24 20 c13 11 31 17 38 14 8 -3 22 -5 31 -5z"/>
<path d="M2672 2674 c-13 -26 -1 -52 22 -48 33 5 47 49 15 49 -8 0 -17 4 -20
9 -4 5 -11 0 -17 -10z"/>
<path d="M3019 2398 c-7 -26 -7 -48 2 -48 5 0 7 -5 4 -10 -4 -6 3 -6 18 1 25
11 28 23 14 47 -7 10 -35 18 -38 10z"/>
<path d="M3330 2315 c-10 -12 -10 -18 1 -32 12 -15 12 -16 -1 -8 -12 6 -12 5
-4 -4 9 -10 17 -10 33 -2 25 14 26 24 5 45 -19 19 -19 19 -34 1z"/>
<path d="M2668 2276 c-16 -12 -16 -14 4 -36 18 -20 22 -20 30 -6 5 10 5 23 -2
36 -13 23 -10 23 -32 6z"/>
<path d="M2174 2104 c3 -9 1 -12 -4 -9 -14 9 -13 -8 2 -23 16 -16 53 4 39 22
-6 7 -9 15 -6 17 2 3 -5 6 -16 6 -15 1 -19 -3 -15 -13z"/>
<path d="M2840 1974 c-11 -12 -10 -18 3 -32 16 -15 18 -15 34 0 13 14 14 20 3
32 -7 9 -16 16 -20 16 -4 0 -13 -7 -20 -16z m33 -8 c4 -10 0 -14 -13 -13 -14
1 -16 4 -8 14 13 16 15 16 21 -1z"/>
<path d="M3423 1803 c-7 -2 -13 -14 -13 -24 0 -11 5 -17 10 -14 6 3 10 1 10
-5 0 -7 7 -5 16 5 25 25 9 52 -23 38z"/>
<path d="M2824 1523 c2 -12 1 -21 -3 -20 -3 1 -7 -2 -9 -8 -6 -17 15 -17 32 0
20 20 21 39 2 32 -8 -3 -17 -1 -20 6 -4 7 -4 2 -2 -10z"/>
<path d="M2795 1520 c-3 -5 -1 -10 4 -10 6 0 11 5 11 10 0 6 -2 10 -4 10 -3 0
-8 -4 -11 -10z"/>
</g>
</svg>
